<?xml version="1.0" standalone="no"?>
<!DOCTYPE svg PUBLIC "-//W3C//DTD SVG 20010904//EN"
 "http://www.w3.org/TR/2001/REC-SVG-20010904/DTD/svg10.dtd">
<svg version="1.0" xmlns="http://www.w3.org/2000/svg"
 width="512.000000pt" height="512.000000pt" viewBox="0 0 512.000000 512.000000"
 preserveAspectRatio="xMidYMid meet">

<g transform="translate(0.000000,512.000000) scale(0.100000,-0.100000)"
fill="#000000" stroke="none">
<path d="M1993 4351 c-17 -5 -50 -19 -71 -32 -22 -13 -284 -244 -582 -513
-381 -344 -547 -501 -562 -529 -55 -109 -23 -240 80 -322 21 -16 259 -234 528
-484 335 -312 503 -460 533 -474 52 -23 142 -25 192 -4 49 20 106 73 132 121
30 57 29 164 -1 222 -14 28 -116 130 -305 305 l-284 264 736 3 c812 3 819 2
968 -60 182 -75 339 -221 427 -395 14 -28 38 -91 52 -140 24 -77 27 -105 27
-223 0 -156 -18 -241 -78 -361 -109 -218 -301 -375 -540 -441 -80 -22 -82 -22
-1200 -28 -831 -4 -1127 -8 -1146 -17 -42 -19 -98 -73 -122 -117 -30 -57 -30
-165 0 -222 28 -52 90 -108 139 -125 32 -12 234 -14 1149 -14 1239 0 1184 -3
1405 71 315 105 585 336 745 636 105 199 148 374 149 613 1 173 -13 262 -61
410 -130 399 -445 716 -844 849 -184 61 -154 59 -1014 65 l-791 6 294 265
c330 297 345 316 345 425 0 69 -18 117 -62 168 -55 62 -161 97 -238 78z"/>
</g>
</svg>
