<svg width="150" height="150" viewBox="0 0 150 150" fill="none" xmlns="http://www.w3.org/2000/svg">
<path d="M134.912 21.5038C131.836 22.4706 131.719 22.5585 92.5782 61.6991L54.0528 100.195L36.6212 82.7636C20.42 66.621 19.043 65.3026 17.2266 64.453C12.5684 62.2851 7.61727 62.9589 3.92586 66.2987C0.996172 68.9355 -0.439374 73.1542 0.263751 76.9628C0.996172 80.8886 0.527422 80.3905 24.8438 104.619C46.1134 125.83 47.4317 127.09 49.2188 127.881C51.504 128.877 54.6388 129.17 56.7481 128.613C60.3223 127.646 58.7989 129.082 104.473 83.4081C151.758 36.0644 149.063 38.9648 149.795 34.7753C150.791 28.9452 147.129 23.2909 141.24 21.5038C139.6 21.0058 136.494 21.0058 134.912 21.5038Z" fill="white"/>
</svg>
