<?xml version="1.0" standalone="no"?>
<!DOCTYPE svg PUBLIC "-//W3C//DTD SVG 20010904//EN"
 "http://www.w3.org/TR/2001/REC-SVG-20010904/DTD/svg10.dtd">
<svg version="1.0" xmlns="http://www.w3.org/2000/svg"
 width="512.000000pt" height="512.000000pt" viewBox="0 0 512.000000 512.000000"
 preserveAspectRatio="xMidYMid meet">

<g transform="translate(0.000000,512.000000) scale(0.100000,-0.100000)"
fill="#000000" stroke="none">
<path d="M3403 5105 c-290 -79 -433 -393 -300 -664 94 -192 326 -299 530 -246
303 79 445 402 302 686 -91 178 -329 278 -532 224z"/>
<path d="M2293 4465 c-358 -78 -487 -529 -227 -789 89 -88 204 -136 328 -136
129 1 230 39 320 121 287 262 146 747 -234 808 -81 13 -109 13 -187 -4z"/>
<path d="M4533 4465 c-172 -47 -308 -188 -344 -356 -16 -73 -6 -201 21 -271
96 -256 402 -370 658 -246 120 57 219 199 244 346 55 326 -260 612 -579 527z"/>
<path d="M3430 3823 c-60 -10 -153 -47 -207 -82 -32 -21 -151 -132 -264 -247
-217 -219 -246 -259 -283 -383 -25 -87 -22 -226 9 -318 64 -188 218 -327 410
-368 101 -21 759 -21 860 0 296 63 494 379 420 670 -34 134 -63 173 -300 411
-241 242 -279 271 -411 304 -71 18 -170 24 -234 13z"/>
<path d="M1483 2695 c-212 -46 -353 -226 -356 -455 -2 -150 61 -281 180 -372
190 -144 449 -128 615 38 96 96 139 198 140 329 1 233 -154 424 -376 464 -76
14 -125 13 -203 -4z"/>
<path d="M385 2060 c-191 -40 -322 -162 -370 -347 -42 -161 12 -350 132 -461
85 -79 199 -122 324 -122 218 0 398 142 454 357 84 321 -216 639 -540 573z"/>
<path d="M2613 2056 c-225 -57 -374 -256 -360 -480 6 -102 26 -166 76 -244 46
-71 132 -139 219 -173 77 -31 250 -33 330 -6 131 46 239 154 284 284 32 95 32
242 -1 326 -49 126 -168 240 -291 281 -72 23 -191 29 -257 12z"/>
<path d="M1473 1406 c-140 -32 -178 -60 -424 -305 -240 -241 -271 -283 -304
-406 -8 -33 -15 -99 -15 -148 0 -254 181 -480 427 -532 96 -21 778 -21 874 -1
102 22 184 68 264 150 183 186 217 466 83 679 -42 67 -385 416 -466 474 -120
86 -295 121 -439 89z"/>
</g>
</svg>
