<?xml version="1.0" standalone="no"?>
<!DOCTYPE svg PUBLIC "-//W3C//DTD SVG 20010904//EN"
 "http://www.w3.org/TR/2001/REC-SVG-20010904/DTD/svg10.dtd">
<svg version="1.0" xmlns="http://www.w3.org/2000/svg"
 width="512.000000pt" height="512.000000pt" viewBox="0 0 512.000000 512.000000"
 preserveAspectRatio="xMidYMid meet">

<g transform="translate(0.000000,512.000000) scale(0.100000,-0.100000)"
fill="#000000" stroke="none">
<path d="M2502 4599 c-29 -4 -76 -18 -105 -33 -35 -17 -367 -299 -1031 -878
-889 -774 -982 -858 -1012 -912 -84 -152 -59 -322 66 -447 84 -85 136 -101
332 -107 l157 -4 3 -717 3 -716 28 -57 c37 -75 128 -159 204 -189 54 -21 76
-23 343 -27 162 -2 316 0 357 6 161 23 274 115 326 267 6 17 13 185 16 385 l6
355 30 58 c17 35 53 80 87 112 73 68 142 95 243 95 102 0 169 -27 245 -97 40
-37 70 -77 92 -121 l33 -66 6 -346 c3 -196 10 -358 16 -375 52 -152 165 -244
326 -267 41 -6 195 -8 357 -6 267 4 289 6 343 27 76 30 164 111 202 188 l30
58 3 716 3 717 157 4 c196 6 248 22 332 107 125 125 149 295 66 447 -29 54
-120 135 -977 883 -519 452 -970 843 -1002 866 -86 65 -177 89 -285 74z"/>
</g>
</svg>
