<?xml version="1.0" standalone="no"?>
<!DOCTYPE svg PUBLIC "-//W3C//DTD SVG 20010904//EN"
 "http://www.w3.org/TR/2001/REC-SVG-20010904/DTD/svg10.dtd">
<svg version="1.0" xmlns="http://www.w3.org/2000/svg"
 width="512.000000pt" height="512.000000pt" viewBox="0 0 512.000000 512.000000"
 preserveAspectRatio="xMidYMid meet">

<g transform="translate(0.000000,512.000000) scale(0.100000,-0.100000)"
fill="#000000" stroke="none">
<path d="M2575 4631 c-57 -36 -703 -694 -711 -724 -17 -73 21 -146 91 -173 84
-32 102 -20 338 214 l207 206 0 -1182 c0 -1290 -3 -1227 57 -1270 48 -34 100
-37 152 -10 88 46 81 -64 81 1277 l0 1185 213 -211 c237 -236 246 -241 333
-208 68 26 103 90 89 163 -6 32 -51 82 -348 380 -188 189 -354 350 -369 358
-38 20 -97 17 -133 -5z"/>
<path d="M1225 3158 c-192 -36 -374 -217 -415 -412 -7 -35 -10 -342 -8 -956
l3 -905 22 -60 c46 -121 138 -229 248 -290 123 -69 34 -65 1571 -65 1509 0
1432 -3 1551 56 81 39 183 140 227 223 67 129 66 101 66 1062 0 575 -4 885
-11 925 -32 180 -176 343 -356 406 -65 22 -80 23 -355 23 -274 0 -288 -1 -314
-21 -66 -49 -86 -123 -50 -191 33 -66 41 -67 341 -73 l270 -5 53 -29 c65 -36
108 -92 122 -160 8 -36 10 -307 8 -901 -3 -849 -3 -850 -25 -890 -28 -52 -68
-89 -123 -114 -45 -20 -58 -21 -1399 -21 -999 0 -1364 3 -1392 12 -55 16 -118
73 -145 132 l-24 51 0 855 c0 558 4 868 10 892 16 56 69 119 125 147 48 26 54
26 320 31 232 4 273 7 294 22 89 63 79 201 -19 250 -31 16 -66 18 -290 17
-140 -1 -277 -5 -305 -11z"/>
</g>
</svg>
