<svg width="24" height="24" viewBox="0 0 24 24" fill="none" xmlns="http://www.w3.org/2000/svg">
<g clip-path="url(#clip0_254_506)">
<path d="M0.0530469 0.0753357C0.0990469 0.13991 9.25905 13.1848 9.34105 13.3022L9.37005 13.3433L4.73805 18.61C2.19105 21.5071 0.0820469 23.9051 0.0520469 23.9384L-0.00195312 24H1.05705H2.11605L6.21105 19.3428C8.46305 16.7814 10.307 14.6857 10.31 14.6857C10.313 14.6857 11.787 16.7814 13.585 19.3428L16.855 24H20.428H24.001L23.972 23.9579C23.956 23.9354 21.772 20.8261 19.12 17.0485C16.467 13.2709 14.296 10.1733 14.296 10.1645C14.295 10.1567 16.3 7.86922 18.75 5.08276C21.2 2.29629 23.207 0.0127185 23.208 0.00782651C23.21 0.00391294 22.737 -6.3586e-07 22.157 -6.3586e-07H21.102L17.228 4.40473C15.098 6.82723 13.351 8.81044 13.345 8.81141C13.34 8.81337 11.943 6.83115 10.241 4.40766L7.14705 -6.3586e-07H3.57305H-0.000953125L0.0530469 0.0753357ZM6.74305 2.4137C9.58105 6.385 21.088 22.4913 21.094 22.5001C21.1 22.5099 20.774 22.5128 19.477 22.5128H17.852L14.442 17.7412C12.567 15.1162 9.20005 10.4042 6.96105 7.27044C4.72205 4.13665 2.89005 1.56934 2.89005 1.56445C2.89005 1.55956 3.57305 1.55565 4.51005 1.55565H6.12905L6.74305 2.4137Z" fill="white"/>
</g>
<defs>
<clipPath id="clip0_254_506">
<rect width="24" height="24" fill="white"/>
</clipPath>
</defs>
</svg>
