<?xml version="1.0" standalone="no"?>
<!DOCTYPE svg PUBLIC "-//W3C//DTD SVG 20010904//EN"
 "http://www.w3.org/TR/2001/REC-SVG-20010904/DTD/svg10.dtd">
<svg version="1.0" xmlns="http://www.w3.org/2000/svg"
 width="512.000000pt" height="512.000000pt" viewBox="0 0 512.000000 512.000000"
 preserveAspectRatio="xMidYMid meet">

<g transform="translate(0.000000,512.000000) scale(0.100000,-0.100000)"
fill="#000000" stroke="none">
<path d="M1903 5105 c-95 -21 -198 -79 -274 -157 l-65 -66 -74 36 c-69 35 -79
37 -169 37 -87 0 -102 -3 -163 -32 -37 -17 -87 -50 -112 -73 -58 -54 -113
-161 -122 -238 l-6 -57 -58 3 c-220 13 -427 -143 -485 -365 -61 -234 75 -479
312 -565 47 -17 90 -22 233 -27 165 -6 178 -8 232 -34 64 -32 111 -80 142
-146 17 -40 21 -73 26 -236 5 -181 7 -193 33 -250 36 -78 104 -146 181 -182
52 -24 74 -28 146 -28 72 0 94 4 146 28 77 36 145 104 181 182 26 57 28 69 33
250 5 163 9 196 26 236 31 66 78 114 142 146 l57 28 455 5 c438 5 457 6 513
27 125 47 221 132 277 247 132 268 -21 594 -315 671 -33 8 -75 15 -95 15 l-35
0 0 83 c0 75 -3 87 -36 147 -97 176 -306 222 -473 103 l-49 -35 -25 33 c-135
179 -359 262 -579 214z"/>
<path d="M530 1800 l0 -1500 -20 0 c-67 0 -140 -79 -140 -150 0 -50 35 -107
80 -130 39 -20 55 -20 1590 -20 1535 0 1551 0 1590 20 45 23 80 80 80 130 0
71 -73 150 -140 150 l-20 0 0 1500 0 1500 -605 0 -605 0 0 -142 c0 -87 -6
-170 -15 -213 -16 -74 -71 -200 -111 -252 l-24 -32 0 -866 c0 -848 0 -867 -20
-905 -23 -45 -80 -80 -131 -80 -46 0 -108 39 -130 82 -18 36 -19 71 -19 798 0
418 -1 760 -3 760 -1 0 -34 -7 -72 -15 -39 -8 -99 -15 -135 -15 -36 0 -96 7
-135 15 -38 8 -71 15 -72 15 -2 0 -3 -342 -3 -760 0 -743 0 -762 -20 -800 -23
-45 -80 -80 -131 -80 -46 0 -108 39 -130 82 -18 36 -19 73 -19 903 l0 866 -24
32 c-40 52 -95 178 -111 252 -9 43 -15 126 -15 213 l0 142 -245 0 -245 0 0
-1500z m2300 1210 c26 -13 47 -34 60 -60 20 -39 20 -57 20 -1030 0 -973 0
-991 -20 -1030 -23 -45 -80 -80 -131 -80 -46 0 -108 39 -130 82 -18 36 -19 74
-19 1030 1 1116 -5 1035 76 1084 48 29 92 30 144 4z"/>
<path d="M3850 3000 l0 -280 175 0 175 0 0 -432 c0 -488 -3 -517 -69 -652 -47
-97 -128 -189 -217 -248 l-64 -42 0 -293 c0 -248 2 -293 14 -293 28 0 161 52
249 98 316 162 545 464 623 822 17 78 19 138 19 730 l0 645 -28 57 c-32 64
-80 111 -146 142 -44 20 -65 21 -388 24 l-343 3 0 -281z"/>
</g>
</svg>
