<svg width="682" height="682" viewBox="0 0 682 682" fill="none" xmlns="http://www.w3.org/2000/svg">
<path d="M308.667 1.46668C244 8.13335 182.933 32.8 130.8 73.0667C116 84.4 84.4001 116 73.0668 130.8C52.0001 157.867 31.8668 194 20.5334 224.667C14.2668 241.733 6.26676 273.6 3.2001 294C-0.266569 316.4 -0.266569 366.133 3.2001 388.667C6.26676 408.8 14.2668 440.8 20.6668 458.133C32.0001 488.933 52.0001 524.8 73.0668 551.867C83.8668 565.867 114.4 596.667 128 607.467C155.6 629.2 193.067 650.4 224.533 662C241.867 668.4 273.867 676.4 294 679.467C313.733 682.4 364.933 682.933 383.333 680.267C447.6 671.067 501.733 648.267 552 609.6C565.733 598.933 596.533 568.4 607.467 554.667C628.933 527.467 650.533 489.2 662 458.133C668.4 440.8 676.4 408.8 679.467 388.667C681.333 376.667 681.867 364.8 681.867 341.333C681.867 305.2 680.133 289.867 672 257.867C665.6 232.533 659.6 216.533 647.333 191.333C621.2 137.6 580.667 91.4667 530 57.4667C487.467 28.9333 441.867 11.4667 389.333 3.33335C372.533 0.800013 325.733 -0.399987 308.667 1.46668ZM368.667 41.3333C473.333 50.9333 566 115.067 612 209.867C626.133 238.8 634.133 264.4 639.467 298C642.8 318.533 642.8 364.133 639.467 384.667C634.133 418.267 626.133 443.867 612 472.8C582.267 533.867 534 582.133 472.667 612.133C443.867 626.133 418.267 634.133 384.667 639.467C364.133 642.8 318.533 642.8 298 639.467C240.267 630.133 190.267 607.467 146.667 570.933C80.2668 515.333 40.0001 428.667 40.0001 341.333C40.0001 254 80.1334 167.733 146.667 111.6C208.533 59.6 289.2 34 368.667 41.3333Z" fill="#A2ABB3"/>
<path d="M310.667 82.0001C252.667 89.6001 202.8 113.2 161.6 152.533C64.667 245.2 52.8003 391.867 133.6 499.067C144.134 513.2 169.6 538.533 183.867 549.333C215.067 572.8 252 589.6 289.334 597.2C362.8 612.133 438.134 594.933 498.8 549.333C512.934 538.8 538.267 513.333 549.067 499.067C620.267 404.933 620.267 278.133 549.067 183.6C538.534 169.467 513.067 144.133 498.934 133.467C465.2 108 426 90.9334 385.334 83.8667C365.2 80.4001 329.734 79.4667 310.667 82.0001ZM365.067 121.467C441.467 129.733 508.667 177.6 541.334 247.067C588.534 347.467 554.4 466.533 460.934 527.333C377.067 581.733 266.267 572.133 191.6 503.867C140.134 456.8 113.867 387.067 121.467 317.6C134.534 196.667 244.267 108.267 365.067 121.467Z" fill="#A2ABB3"/>
<path d="M332.667 163.467C330.534 164.533 328 166.267 327.067 167.067C326.267 168 315.467 188.8 303.334 213.333C291.067 237.867 280.934 258.133 280.934 258.267C280.8 258.267 259.334 261.467 233.334 265.2C207.334 269.067 184.134 272.667 181.734 273.467C173.067 276.267 168 286.4 170 296.8C170.934 302.133 168.667 299.733 216.134 346.4L243.734 373.467L235.334 422.133C226.4 474.267 226.267 477.2 232.267 483.6C237.2 488.933 242.4 491.067 248.667 490.267C252.667 489.867 267.6 482.667 297.867 466.8L341.467 443.867L384.934 466.8C414.934 482.667 430.134 489.867 434 490.4C443.467 491.467 452.267 484.933 454.4 475.333C455.334 471.067 453.867 460.4 447.2 421.733L438.934 373.333L465.867 347.067C513.734 300 511.734 302.133 512.667 296.8C514.667 286.8 510.667 278.267 502.4 274.267C500 273.2 476.4 269.067 450 265.333C423.6 261.467 401.867 258.267 401.734 258.133C401.734 258.133 391.467 237.6 379.067 212.667C357.867 170.267 356.134 167.2 351.2 164.4C345.067 160.8 338.267 160.533 332.667 163.467ZM358 259.6C370.934 285.2 374.8 291.733 378 293.6C380.667 295.067 394.267 297.6 415.334 300.8C433.734 303.333 448.934 305.867 449.2 306.133C449.6 306.533 438.667 317.6 424.934 330.8C405.334 349.733 399.734 355.867 398.534 360C397.2 364.267 397.734 369.733 402.667 398.533C405.867 416.933 408.134 432.267 407.734 432.667C407.467 433.067 399.067 429.067 389.2 423.867C353.6 405.067 345.734 401.333 341.2 401.333C338 401.333 327.467 406.133 306.134 417.333C289.334 426.133 275.2 433.067 274.934 432.667C274.534 432.267 276.8 416.933 280 398.533C284.934 369.733 285.467 364.267 284.134 360C282.934 356 277.2 349.6 257.734 330.8C244 317.467 233.067 306.4 233.467 306.133C233.734 305.867 248.934 303.467 267.2 300.8C288.8 297.733 301.867 295.2 304.534 293.6C307.867 291.733 311.6 285.467 324.667 259.6C333.467 242.267 340.934 228 341.334 228C341.734 228 349.2 242.267 358 259.6Z" fill="#A2ABB3"/>
</svg>
