<?xml version="1.0" standalone="no"?>
<!DOCTYPE svg PUBLIC "-//W3C//DTD SVG 20010904//EN"
 "http://www.w3.org/TR/2001/REC-SVG-20010904/DTD/svg10.dtd">
<svg version="1.0" xmlns="http://www.w3.org/2000/svg"
 width="512.000000pt" height="512.000000pt" viewBox="0 0 512.000000 512.000000"
 preserveAspectRatio="xMidYMid meet">

<g transform="translate(0.000000,512.000000) scale(0.100000,-0.100000)"
fill="#000000" stroke="none">
<path d="M2498 4339 c-31 -5 -83 -21 -115 -38 -225 -113 -290 -398 -137 -599
15 -19 23 -40 20 -49 -3 -8 -139 -249 -302 -534 -301 -528 -308 -539 -356
-527 -7 1 -165 95 -349 207 l-336 203 15 42 c67 192 -39 425 -226 497 -199 76
-423 -10 -509 -196 -53 -117 -53 -239 2 -350 49 -101 170 -194 273 -211 30 -5
42 -12 45 -28 3 -11 83 -410 177 -886 94 -476 178 -887 187 -915 9 -27 26 -66
38 -86 35 -55 120 -126 183 -151 l57 -23 1395 0 1395 0 58 23 c80 33 166 115
201 191 20 45 71 281 206 958 99 493 183 900 187 903 5 3 31 12 58 19 253 62
375 373 233 593 -178 278 -589 237 -709 -69 -28 -71 -31 -204 -6 -271 16 -41
16 -42 -6 -56 -163 -105 -664 -396 -681 -396 -12 0 -29 6 -38 13 -14 10 -571
980 -601 1044 -7 17 -4 28 16 55 122 159 110 379 -28 521 -91 94 -211 134
-347 116z"/>
</g>
</svg>
