<svg width="556" height="611" viewBox="0 0 556 611" fill="none" xmlns="http://www.w3.org/2000/svg">
<path d="M154.6 2.26665C146.333 6.26665 144.333 10.8 143.933 27.7333C143.4 44.8 145.4 42.6667 127 45.3333C97.9334 49.6 69.5334 62.2667 50.0667 79.6C23.5334 103.067 8.4667 133.867 2.8667 176C0.200033 196.533 0.200033 456.8 2.8667 477.333C8.4667 519.467 23.5334 550.267 50.0667 573.733C70.3334 591.733 98.0667 603.733 130.733 608.533C151.533 611.733 405.133 611.733 425.933 608.533C487.533 599.467 528.733 566.267 546.2 511.6C555.133 483.6 554.733 490.933 555.267 336.667C555.667 240.267 555.4 192.133 554.333 182C546.733 105.867 503.133 57.4667 431.8 45.8667C424.733 44.6667 417.667 43.4667 416.067 43.2C413.133 42.6667 413 42 413 29.2C413 13.8667 411.133 8.39998 404.6 3.73332C398.333 -0.800016 387 -1.06668 381 2.93332C373.267 7.99998 370.333 15.7333 370.333 30.2667V42.6667H278.467H186.6L186.067 28.9333C185.533 13.4667 183.4 8.13332 175.667 3.06665C170.333 -0.666682 161.133 -0.933349 154.6 2.26665ZM370.6 99.0667C371.133 114.4 372.333 117.333 380.467 123.467C389.4 130.4 403.133 127.6 409.933 117.333C412.6 113.467 413 111.2 413 99.8667V86.6667H418.2C425.133 86.6667 446.467 92.2667 456.2 96.5333C481 107.6 498.467 128.667 506.867 157.6C509.933 168.267 513 187.867 513 196.933V201.333H278.333H43.6667V196.933C43.6667 187.867 46.7334 168.133 49.9334 157.333C60.6 120.533 84.0667 98.5333 122.733 89.3333C128.733 87.8667 135.933 86.6667 138.733 86.6667H143.667V99.8667C143.667 111.2 144.067 113.467 146.733 117.333C150.867 123.6 157.533 127.2 165.133 127.2C172.333 127.2 176.6 124.8 181.933 117.867C185.267 113.333 185.667 111.733 186.067 99.2L186.6 85.3333H278.333H370.067L370.6 99.0667ZM513 351.333C513 418.8 512.467 463.6 511.533 471.6C505.533 525.867 476.067 557.467 423.533 566C404.867 568.933 151.8 568.933 133.133 566C80.8667 557.467 51.8 526.533 45.1334 472.667C44.2 464.8 43.6667 423.067 43.6667 352.267V244H278.333H513V351.333Z" fill="#A2ABB3"/>
<path d="M167 322.533C153.133 328.8 146.6 345.733 152.867 359.333C162.333 380.4 192.333 381.6 203.533 361.333C209.533 350.667 207 335.467 198.067 327.067C190.6 320 176.867 318 167 322.533Z" fill="#A2ABB3"/>
<path d="M265.8 322.667C258.6 326.267 257.267 327.733 253.4 335.2C250.6 340.667 250.2 343.2 250.6 350.133C251.267 361.067 255.8 368 265.267 372.8C279.4 380 296.2 374.933 303.267 361.333C307.933 352.533 307.133 339.733 301.667 331.867C293.8 320.8 277.933 316.667 265.8 322.667Z" fill="#A2ABB3"/>
<path d="M367.667 321.467C356.867 325.867 349.934 336.133 349.934 348.133C349.8 372.267 378.334 384.933 396.6 368.933C416.067 351.733 403.667 319.867 377.667 320.133C374.067 320.133 369.534 320.8 367.667 321.467Z" fill="#A2ABB3"/>
<path d="M368.733 420.667C360.6 423.333 352.467 432.267 350.333 441.2C347.4 453.733 353.4 466.667 365.133 472.533C376.867 478.4 388.6 476.533 397.8 467.333C418.6 446.533 397 411.733 368.733 420.667Z" fill="#A2ABB3"/>
<path d="M167.8 421.467C161.4 424 156.6 428.667 153.534 435.2C146.6 450.133 152.2 466 166.867 472.8C175.8 476.933 182.734 476.8 191.534 472.533C203.134 466.667 209.267 453.733 206.334 441.333C204.467 433.867 197.8 425.333 191.134 422.133C186.2 419.733 173 419.333 167.8 421.467Z" fill="#A2ABB3"/>
<path d="M265.667 422.533C247.8 430.8 244.867 455.6 260.067 468.933C278.2 484.8 306.333 471.6 306.333 447.333C306.333 439.867 302.867 431.467 298.2 427.067C290.467 420 275.667 417.867 265.667 422.533Z" fill="#A2ABB3"/>
</svg>
