<svg width="583" height="480" viewBox="0 0 583 480" fill="none" xmlns="http://www.w3.org/2000/svg">
<path d="M134.667 1.66672C83.7333 9.66672 41.7333 39.9334 18.6666 85.1334C-2.00007 125.667 -5.20006 176.067 10.1333 219.933C35.7333 293 114 375.933 232.667 455.8C264.4 477.133 270.667 479.667 291.333 479.667C310.8 479.667 318.4 476.733 343.6 460.067C465.2 379.533 546.4 294.333 572.533 219.933C584.8 184.867 585.333 144.867 573.867 109C552.533 41.6667 488.667 -2.99994 419.333 0.73339C389.467 2.33339 364.667 10.7334 338.667 28.0667C325.867 36.4667 304.933 55.8001 295.6 67.6667L291.333 73.0001L287.067 67.6667C278.4 56.6001 256.533 36.3334 244.8 28.6001C225.733 15.8001 207.733 8.06672 186.8 3.53339C175.333 1.00006 145.733 0.066723 134.667 1.66672ZM175.733 35.6667C198.8 39.6667 222.267 51.0001 240.8 67.1334C250.267 75.2667 263.467 90.8667 271.733 103.667C279.467 115.667 283.2 119.133 289.6 119.8C297.2 120.733 301.733 117.133 312.8 100.733C335.867 67.0001 365.067 45.5334 400.4 36.7334C414 33.2667 442.133 33.6667 456.133 37.4001C500.667 49.2667 533.867 83.8001 545.6 130.467C547.333 137.533 547.867 145.267 547.867 163.667C547.867 186.067 547.6 188.467 544.133 199.667C532.267 238.333 508.267 274.867 466 318.2C430 355 383.467 393.133 331.333 428.333C293.867 453.533 288.533 453.533 249.333 426.867C197.2 391.533 152.8 355.267 116.667 318.2C70.7999 271.267 46.3999 232.733 36.5333 191.667C33.0666 177.267 33.0666 150.867 36.5333 134.333C41.7333 109.133 52.1333 89.0001 69.0666 71.4001C97.5999 41.6667 136.133 28.7334 175.733 35.6667Z" fill="#536371"/>
</svg>
