<svg width="581" height="478" viewBox="0 0 581 478" fill="none" xmlns="http://www.w3.org/2000/svg">
<path d="M140.333 0.799975C71.6666 7.06664 16.9999 58.4 2.73325 129.733C-0.466748 146 -0.466748 178.8 2.73325 193.733C17.1333 260.267 70.8666 330.533 164.867 405.333C203.133 435.733 254.467 470.667 267.133 474.8C278.2 478.4 302.467 478.4 313.667 474.8C323 471.733 362.067 446 394.333 421.867C501 341.6 562.467 265.2 577.933 193.6C581.133 178.8 581.133 145.867 577.933 129.733C563.533 57.7333 508.733 6.79998 439 0.799975C391.133 -3.33336 343.933 15.6 307.667 53.4666C302.067 59.3333 295.933 66.1333 293.933 68.6666L290.333 73.3333L286.733 68.6666C279.533 59.4666 261.4 41.6 251.667 34.1333C218.2 8.53331 179.933 -2.93336 140.333 0.799975Z" fill="#F9197F"/>
</svg>
