<?xml version="1.0" standalone="no"?>
<!DOCTYPE svg PUBLIC "-//W3C//DTD SVG 20010904//EN"
 "http://www.w3.org/TR/2001/REC-SVG-20010904/DTD/svg10.dtd">
<svg version="1.0" xmlns="http://www.w3.org/2000/svg"
 width="512.000000pt" height="512.000000pt" viewBox="0 0 512.000000 512.000000"
 preserveAspectRatio="xMidYMid meet">

<g transform="translate(0.000000,512.000000) scale(0.100000,-0.100000)"
fill="#000000" stroke="none">
<path d="M2590 5114 c-695 -66 -1284 -389 -1698 -932 -221 -289 -395 -698
-441 -1035 -26 -186 61 -352 225 -434 64 -31 88 -37 159 -41 49 -3 104 1 132
8 27 6 84 14 128 16 l80 3 114 143 c63 79 185 213 272 299 l157 157 -10 53
c-15 82 -4 262 22 344 38 122 121 255 219 350 23 22 81 69 129 105 l87 65 61
123 c70 142 133 215 227 262 191 95 424 45 553 -119 48 -60 127 -236 168 -373
199 -654 -42 -1237 -561 -1361 l-92 -22 -32 -80 c-80 -204 -274 -540 -502
-870 -113 -163 -329 -460 -400 -550 -47 -60 -46 -76 11 -199 52 -111 102 -185
181 -268 210 -223 471 -319 916 -335 592 -21 1156 179 1612 571 748 644 1012
1703 653 2624 -139 356 -369 684 -655 930 -371 319 -836 516 -1325 561 -106
10 -307 12 -390 5z m1741 -1495 c284 -135 347 -507 123 -725 -217 -212 -581
-150 -715 121 -121 245 1 533 266 628 38 13 74 17 150 15 91 -3 107 -7 176
-39z m-282 -1258 c316 -98 418 -495 190 -736 -216 -229 -596 -164 -733 125
-29 61 -31 72 -31 185 0 115 1 123 32 186 59 119 151 201 271 240 77 24 193
24 271 0z m-1236 -436 c85 -22 154 -61 213 -119 170 -170 176 -442 14 -618
-254 -278 -708 -142 -772 231 -53 309 244 585 545 506z"/>
<path d="M4060 3338 c-69 -48 -89 -143 -43 -207 30 -41 104 -74 148 -65 67 12
125 80 125 146 0 115 -136 189 -230 126z"/>
<path d="M3854 2070 c-11 -4 -34 -24 -52 -44 -27 -31 -32 -44 -32 -89 0 -91
57 -150 146 -150 115 0 185 129 125 227 -35 56 -123 82 -187 56z"/>
<path d="M2644 1620 c-139 -69 -89 -280 68 -280 74 0 147 74 148 149 0 50 -37
108 -85 131 -52 25 -80 25 -131 0z"/>
<path d="M2600 4339 c-43 -17 -60 -40 -117 -159 -48 -96 -68 -126 -127 -185
-39 -38 -102 -92 -141 -120 -89 -64 -166 -169 -196 -267 -17 -55 -20 -87 -17
-156 8 -146 12 -151 221 -297 l182 -128 83 6 c242 15 416 223 452 539 19 165
-18 373 -103 587 -22 57 -52 118 -66 134 -42 50 -112 69 -171 46z"/>
<path d="M1772 2933 c-400 -397 -1161 -1542 -1576 -2373 -199 -399 -245 -582
-139 -555 58 14 147 87 339 279 490 491 1236 1451 1609 2071 86 143 203 376
207 414 3 21 -19 40 -165 143 -92 65 -170 118 -172 118 -3 0 -49 -44 -103 -97z"/>
</g>
</svg>
