<?xml version="1.0" standalone="no"?>
<!DOCTYPE svg PUBLIC "-//W3C//DTD SVG 20010904//EN"
 "http://www.w3.org/TR/2001/REC-SVG-20010904/DTD/svg10.dtd">
<svg version="1.0" xmlns="http://www.w3.org/2000/svg"
 width="512.000000pt" height="512.000000pt" viewBox="0 0 512.000000 512.000000"
 preserveAspectRatio="xMidYMid meet">

<g transform="translate(0.000000,512.000000) scale(0.100000,-0.100000)"
fill="#000000" stroke="none">
<path d="M2410 4816 c-290 -62 -521 -281 -594 -566 -9 -36 -20 -116 -23 -177
l-6 -113 -238 0 c-272 0 -309 -8 -392 -81 -96 -84 -77 33 -257 -1631 -89 -816
-161 -1517 -161 -1558 0 -128 39 -217 135 -308 67 -64 137 -97 231 -112 48 -7
518 -10 1500 -8 1610 3 1473 -4 1597 81 115 79 181 207 179 350 -1 129 -318
3017 -337 3072 -24 69 -102 145 -177 173 -53 20 -77 22 -296 22 l-238 0 -6
118 c-8 144 -25 210 -84 332 -40 81 -61 109 -142 190 -105 105 -192 158 -326
200 -90 28 -271 36 -365 16z m298 -141 c121 -29 247 -105 326 -198 99 -117
144 -238 153 -404 l6 -113 68 0 69 0 0 -279 0 -279 30 -12 c42 -17 107 -91
119 -136 25 -90 7 -171 -52 -233 -128 -135 -362 -69 -396 112 -18 99 27 199
109 245 l50 27 0 278 0 277 -630 0 -630 0 0 -278 0 -277 46 -24 c140 -74 162
-275 42 -376 -123 -104 -303 -64 -369 80 -21 45 -24 111 -9 166 13 45 79 122
120 139 l30 12 0 279 0 279 70 0 70 0 0 75 c0 265 134 486 359 593 40 20 97
41 125 48 71 17 219 17 294 -1z m-419 -2287 c67 -41 106 -95 126 -176 24 -91
8 -162 -49 -218 -89 -90 -215 -79 -310 26 -53 59 -69 103 -70 185 0 135 72
215 194 215 45 0 66 -6 109 -32z m594 18 c44 -18 94 -77 108 -128 17 -63 6
-148 -27 -208 -86 -158 -282 -184 -371 -48 -39 59 -44 167 -11 239 28 61 73
111 127 139 43 23 127 26 174 6z m-1010 -358 c51 -15 145 -100 168 -153 24
-52 24 -138 0 -190 -65 -141 -246 -153 -366 -24 -57 61 -78 108 -78 179 -1 63
28 130 68 156 64 42 137 53 208 32z m1395 -3 c177 -75 156 -328 -36 -422 -103
-50 -217 -31 -267 46 -53 80 -51 185 5 266 71 103 200 150 298 110z m-620
-195 c73 -39 111 -78 152 -161 17 -33 43 -70 57 -82 126 -104 170 -166 199
-278 29 -114 1 -227 -78 -314 -100 -109 -233 -141 -379 -91 -94 32 -129 33
-213 1 -137 -52 -273 -26 -369 68 -67 66 -98 132 -105 220 -10 138 53 272 172
365 46 37 69 64 89 105 67 142 177 210 332 204 68 -3 89 -8 143 -37z"/>
</g>
</svg>
