<svg width="386" height="89" viewBox="0 0 386 89" fill="none" xmlns="http://www.w3.org/2000/svg">
<path d="M385.127 63.8001C385.639 64.6534 385.596 65.5494 384.999 66.4881C384.657 67.0854 384.359 67.7254 384.103 68.4081C383.932 69.0908 383.633 69.7308 383.207 70.3281C382.78 70.8401 382.353 71.3948 381.927 71.9921C381.5 72.5894 381.031 73.2294 380.519 73.9121C380.007 74.3388 379.452 74.7654 378.855 75.1921C378.257 75.6188 377.703 76.0028 377.191 76.3441C376.764 76.4294 376.38 76.4294 376.039 76.3441C375.783 76.1734 375.569 76.0454 375.399 75.9601C375.313 75.7894 375.143 75.6188 374.887 75.4481C374.716 75.2774 374.588 75.1494 374.503 75.0641C374.161 74.6374 373.948 74.5094 373.863 74.6801C373.863 74.8508 373.649 74.8934 373.223 74.8081C372.881 74.5521 372.412 74.1254 371.815 73.5281C371.303 73.5281 370.919 73.4001 370.663 73.1441C370.492 72.8881 370.151 72.7174 369.639 72.6321C369.553 72.6321 369.425 72.5468 369.255 72.3761C369.169 72.1201 368.871 72.3334 368.359 73.0161C368.103 73.4428 367.761 74.0828 367.335 74.9361C366.993 75.7894 366.695 76.5148 366.439 77.1121C366.268 77.4534 366.055 77.7948 365.799 78.1361C365.628 78.4774 365.457 78.8614 365.287 79.2881C365.031 79.8854 364.732 80.1841 364.391 80.1841C363.793 80.2694 363.367 80.5254 363.111 80.9521C362.855 81.3788 362.513 81.8054 362.087 82.2321C361.148 82.4881 360.167 82.7441 359.143 83.0001C358.119 83.1708 357.137 83.4268 356.199 83.7681C355.175 84.1094 354.108 84.1948 352.999 84.0241C351.975 83.9388 350.993 84.0241 350.055 84.2801C349.628 84.1094 349.159 83.9814 348.647 83.8961C348.22 83.8108 347.793 83.7254 347.367 83.6401C347.111 83.4694 346.812 83.3414 346.471 83.2561C346.129 83.2561 345.873 83.2134 345.703 83.1281C344.935 82.7868 344.423 82.1468 344.167 81.2081C343.655 80.7814 343.143 80.3974 342.631 80.0561C342.119 79.6294 341.564 79.2028 340.967 78.7761C340.711 78.2641 340.497 77.8801 340.327 77.6241C340.241 77.3681 340.113 76.9414 339.943 76.3441C339.772 75.7468 339.516 74.7654 339.175 73.4001C338.919 71.9494 338.492 69.8161 337.895 67.0001C337.98 66.6588 338.023 66.3174 338.023 65.9761C338.108 65.6348 338.193 65.2934 338.279 64.9521C338.193 64.6961 338.065 64.4828 337.895 64.3121C337.809 64.0561 337.681 63.8001 337.511 63.5441C337.511 63.2881 337.511 63.0321 337.511 62.7761C337.596 62.4348 337.596 62.0934 337.511 61.7521C337.511 61.5814 337.468 61.4108 337.383 61.2401C337.297 61.0694 337.212 60.8561 337.127 60.6001C337.553 59.4054 338.108 58.2961 338.791 57.2721C339.473 56.2481 340.241 55.2668 341.095 54.3281C341.521 54.1574 341.905 53.9868 342.247 53.8161C342.673 53.6454 343.015 53.5174 343.271 53.4321C344.295 52.6641 345.276 51.9388 346.215 51.2561C347.153 50.5734 348.049 49.9334 348.903 49.3361C349.585 49.0801 350.268 48.9521 350.951 48.9521C351.719 48.9521 352.401 48.9094 352.999 48.8241C353.596 48.8241 354.151 48.5681 354.663 48.0561C354.748 47.7148 354.833 47.3308 354.919 46.9041C355.004 46.4774 355.089 46.0934 355.175 45.7521C355.175 44.8988 355.004 44.1734 354.663 43.5761C354.321 42.8934 353.937 42.2534 353.511 41.6561C353.34 41.4001 353.084 41.2294 352.743 41.1441C352.401 40.9734 352.145 40.8454 351.975 40.7601C351.463 41.1014 350.951 41.4001 350.439 41.6561C350.012 41.9121 349.5 41.9974 348.903 41.9121C348.561 41.8268 348.263 41.8268 348.007 41.9121C347.751 41.9974 347.495 42.0828 347.239 42.1681C346.641 42.3388 346.087 42.5094 345.575 42.6801C345.063 42.8508 344.551 43.0214 344.039 43.1921C341.991 44.0454 339.943 44.3014 337.895 43.9601C337.553 44.3014 337.212 44.6001 336.871 44.8561C336.529 45.0268 336.231 45.2828 335.975 45.6241C335.633 45.6241 335.292 45.6668 334.951 45.7521C334.695 45.7521 334.439 45.7521 334.183 45.7521C333.671 46.1788 333.159 46.6481 332.647 47.1601C332.22 47.5868 331.751 48.0134 331.239 48.4401C331.153 49.0374 331.153 49.6774 331.239 50.3601C331.409 50.8721 331.495 51.3841 331.495 51.8961C331.239 53.6028 331.452 55.2241 332.135 56.7601C332.391 57.6134 332.519 58.4668 332.519 59.3201V68.5361L331.239 72.1201C331.495 74.7654 331.623 77.3254 331.623 79.8001C331.623 80.1414 331.623 80.4828 331.623 80.8241C331.623 81.0801 331.58 81.4214 331.495 81.8481C331.409 82.2748 331.281 82.6588 331.111 83.0001C330.94 83.3414 330.769 83.7254 330.599 84.1521C330.428 84.4934 330.172 84.8348 329.831 85.1761C329.575 85.5174 329.319 85.8161 329.063 86.0721C327.612 85.9868 326.161 85.9868 324.711 86.0721C323.26 86.1574 321.809 86.4988 320.359 87.0961C319.847 87.3521 319.463 87.4801 319.207 87.4801C318.439 87.4801 317.713 87.5228 317.031 87.6081C316.348 87.6934 315.623 87.8214 314.855 87.9921C314.684 88.0774 314.428 87.9921 314.087 87.7361C313.831 87.4801 313.745 87.2241 313.831 86.9681C313.916 86.3708 313.916 85.8161 313.831 85.3041C313.831 84.7921 313.788 84.2801 313.703 83.7681C313.361 82.5734 313.191 81.3788 313.191 80.1841C313.191 78.9041 313.063 77.6668 312.807 76.4721C312.721 76.2161 312.679 75.9174 312.679 75.5761C312.764 75.1494 312.807 74.7654 312.807 74.4241C312.892 73.6561 313.063 72.8028 313.319 71.8641C313.063 71.4374 312.849 71.0108 312.679 70.5841C312.593 70.1574 312.465 69.7308 312.295 69.3041C312.465 68.6214 312.721 67.9814 313.063 67.3841C313.404 66.7868 313.575 66.1041 313.575 65.3361C313.575 64.9948 313.489 64.7388 313.319 64.5681C313.063 64.4828 312.807 64.4401 312.551 64.4401C312.465 64.5254 312.337 64.6108 312.167 64.6961C311.996 64.6961 311.868 64.7814 311.783 64.9521L309.863 66.8721C309.521 66.9574 309.137 67.0428 308.711 67.1281C308.369 67.2134 307.943 67.2988 307.431 67.3841C307.175 67.5548 306.791 67.8961 306.279 68.4081C305.511 69.8588 304.316 70.4988 302.695 70.3281C300.647 70.1574 298.727 70.4561 296.935 71.2241C296.508 71.3948 296.039 71.5654 295.527 71.7361C295.015 71.8214 294.545 71.9494 294.119 72.1201C293.265 72.3761 292.54 72.1201 291.943 71.3521C291.601 70.9254 291.303 70.5841 291.047 70.3281C290.876 69.9868 290.62 69.6454 290.279 69.3041C290.108 68.8774 289.852 68.4508 289.511 68.0241C289.255 67.5974 289.041 67.2134 288.871 66.8721C287.847 65.1654 287.633 63.6721 288.231 62.3921C288.828 60.9414 289.34 59.5334 289.767 58.1681C290.279 56.8028 290.961 55.5228 291.815 54.3281C292.241 53.4748 292.583 52.6641 292.839 51.8961C293.265 50.8721 293.649 49.8908 293.991 48.9521C294.332 47.9281 294.801 46.9894 295.399 46.1361C295.569 45.9654 295.697 45.7521 295.783 45.4961C295.868 45.1548 295.953 44.8561 296.039 44.6001C296.039 44.4294 296.039 43.8748 296.039 42.9361C296.124 41.9974 296.167 41.4854 296.167 41.4001C295.569 41.0588 295.015 40.9734 294.503 41.1441C294.076 41.2294 293.564 41.1441 292.967 40.8881C292.881 40.8028 292.583 40.8028 292.071 40.8881C291.644 40.9734 291.345 41.0588 291.175 41.1441C290.748 41.1441 290.364 41.1868 290.023 41.2721C289.681 41.3574 289.297 41.3148 288.871 41.1441C288.444 40.9734 288.017 40.8881 287.591 40.8881C287.249 40.8028 286.865 40.7174 286.439 40.6321C285.756 40.1201 285.287 39.4801 285.031 38.7121C284.86 37.8588 284.561 37.0481 284.135 36.2801C284.305 35.7681 284.433 35.2561 284.519 34.7441C284.604 34.2321 284.732 33.7201 284.903 33.2081C284.561 32.6961 284.305 32.2268 284.135 31.8001C284.135 31.2028 284.135 30.9041 284.135 30.9041C284.305 30.0508 284.476 29.2828 284.647 28.6001C284.817 27.8321 284.817 27.0641 284.647 26.2961C284.647 25.7841 284.988 25.2721 285.671 24.7601C286.012 24.5894 286.396 24.5041 286.823 24.5041C287.249 24.4188 287.633 24.3334 287.975 24.2481C288.231 24.1628 288.487 24.0774 288.743 23.9921C289.084 23.9068 289.34 23.8214 289.511 23.7361C290.791 22.8828 291.985 22.4561 293.095 22.4561C294.375 22.0294 295.655 21.7734 296.935 21.6881C298.3 21.6028 299.623 21.3894 300.903 21.0481C301.244 20.9628 301.543 20.9201 301.799 20.9201C302.055 20.8348 302.353 20.8348 302.695 20.9201C303.377 21.0054 303.975 20.9628 304.487 20.7921C305.084 20.5361 305.681 20.3654 306.279 20.2801C306.449 20.1948 306.62 20.1948 306.791 20.2801C307.047 20.2801 307.26 20.2801 307.431 20.2801C307.772 20.5361 307.943 20.7921 307.943 21.0481C308.028 21.3041 308.113 21.6028 308.199 21.9441C308.369 22.1148 308.497 22.3708 308.583 22.7121C308.753 22.9681 308.881 23.1814 308.967 23.3521C309.052 23.6934 309.18 23.9921 309.351 24.2481C309.521 24.4188 309.649 24.6321 309.735 24.8881C309.137 26.1681 308.881 27.4054 308.967 28.6001C309.137 29.7948 309.436 30.9894 309.863 32.1841C309.692 33.5494 309.479 34.9148 309.223 36.2801C309.052 37.6454 308.796 38.9681 308.455 40.2481C308.455 40.5041 308.583 40.7174 308.839 40.8881C309.095 41.0588 309.351 41.0161 309.607 40.7601C310.289 40.1628 310.972 39.5228 311.655 38.8401C312.337 38.1574 312.977 37.5174 313.575 36.9201C313.66 36.9201 313.703 36.8348 313.703 36.6641C313.873 36.2374 313.873 35.8534 313.703 35.5121C313.617 35.1708 313.575 34.8294 313.575 34.4881C313.575 34.0614 313.617 33.6774 313.703 33.3361C313.788 32.9094 313.873 32.4828 313.959 32.0561C313.276 29.1548 313.191 26.2534 313.703 23.3521C313.703 23.1814 313.703 23.0534 313.703 22.9681C313.788 22.7974 313.831 22.6268 313.831 22.4561C313.745 21.7734 313.745 21.0908 313.831 20.4081C314.001 19.7254 314.087 19.0428 314.087 18.3601C314.087 17.6774 314.044 17.0374 313.959 16.4401C313.959 15.8428 313.873 15.2028 313.703 14.5201C313.361 13.9228 313.233 13.3254 313.319 12.7281C313.404 12.1308 313.532 11.4908 313.703 10.8081C314.129 9.61343 314.513 8.37609 314.855 7.09609C315.196 5.73076 315.452 4.40809 315.623 3.1281C315.708 2.95743 315.751 2.82943 315.751 2.74409C315.836 2.65876 315.921 2.57343 316.007 2.4881C316.86 1.63476 317.841 0.866759 318.951 0.184096C319.377 0.184096 319.761 0.141429 320.103 0.0560972C320.444 -0.0292401 320.785 0.013426 321.127 0.184096C321.639 0.269428 322.108 0.35476 322.535 0.440092C322.961 0.525425 323.473 0.610759 324.071 0.696097C325.18 1.03743 326.289 1.37876 327.399 1.72009C328.593 1.97609 329.788 2.31743 330.983 2.74409C331.068 2.91476 331.153 3.08543 331.239 3.25609C331.409 3.42676 331.495 3.59743 331.495 3.7681C331.665 4.19476 331.836 4.66409 332.007 5.17609C332.263 5.60276 332.519 6.02942 332.775 6.45609C333.884 8.07742 334.311 9.78409 334.055 11.5761C333.969 12.1734 333.884 12.7281 333.799 13.2401C333.713 13.7521 333.628 14.3494 333.543 15.0321C333.628 15.2881 333.713 15.6294 333.799 16.0561C333.969 16.3974 334.097 16.7814 334.183 17.2081C334.097 17.3788 333.969 17.6348 333.799 17.9761C333.628 18.2321 333.457 18.5308 333.287 18.8721C333.372 19.1281 333.457 19.3841 333.543 19.6401C333.713 19.8961 333.841 20.1521 333.927 20.4081C333.927 20.6641 333.884 20.9201 333.799 21.1761C333.713 21.4321 333.671 21.6881 333.671 21.9441C334.353 22.4561 334.908 22.6268 335.335 22.4561C336.017 22.2854 336.572 22.1148 336.999 21.9441C337.681 21.4321 338.407 21.0054 339.175 20.6641C339.943 20.2374 340.668 19.8534 341.351 19.5121C342.033 19.2561 342.716 19.0001 343.399 18.7441C344.167 18.4881 344.977 18.5308 345.831 18.8721C346.769 18.6161 347.665 18.5308 348.519 18.6161C349.457 18.7014 350.353 18.5308 351.207 18.1041C351.463 17.9334 351.761 17.8481 352.103 17.8481C352.529 17.7628 352.871 17.6774 353.127 17.5921C353.553 17.5068 353.937 17.4641 354.279 17.4641C354.62 17.3788 354.961 17.2934 355.303 17.2081C356.071 17.2081 356.796 17.2508 357.479 17.3361C358.247 17.3361 359.057 17.3788 359.911 17.4641C361.02 17.6348 361.873 18.1041 362.471 18.8721C363.58 20.3228 364.86 21.6454 366.311 22.8401C367.761 23.9494 369.127 25.2721 370.407 26.8081C370.663 27.5761 370.919 28.4294 371.175 29.3681C371.431 30.2214 371.431 31.1601 371.175 32.1841C371.345 32.5254 371.473 32.9094 371.559 33.3361C371.729 33.7628 371.857 34.1894 371.943 34.6161C372.113 35.1281 372.284 35.6401 372.455 36.1521C372.625 36.6641 372.924 37.1334 373.351 37.5601C373.607 37.9868 373.82 38.4561 373.991 38.9681C374.161 39.3948 374.161 39.8214 373.991 40.2481C373.905 41.3574 373.863 42.4668 373.863 43.5761C373.863 44.6001 373.692 45.6241 373.351 46.6481C372.839 47.5014 372.668 48.4401 372.839 49.4641C373.095 50.0614 373.479 50.4454 373.991 50.6161C374.503 50.7014 374.929 50.8294 375.271 51.0001C375.612 51.2561 375.996 51.5548 376.423 51.8961C376.849 52.1521 377.319 52.4081 377.831 52.6641C378.257 53.2614 378.684 53.9014 379.111 54.5841C379.537 55.1814 379.921 55.7788 380.263 56.3761C380.689 56.6321 381.116 56.8881 381.543 57.1441C381.969 57.4001 382.353 57.6134 382.695 57.7841C383.121 58.2961 383.42 58.8081 383.591 59.3201C383.761 59.7468 383.932 60.1734 384.103 60.6001C384.188 61.4534 384.231 62.0508 384.231 62.3921C384.316 62.6481 384.615 63.1174 385.127 63.8001ZM357.607 62.5201C357.607 62.4348 357.564 62.3921 357.479 62.3921C357.479 62.3068 357.479 62.2641 357.479 62.2641C357.137 61.4961 356.54 61.1974 355.687 61.3681C355.004 61.4534 354.364 61.6241 353.767 61.8801C353.169 62.0508 352.572 62.2214 351.975 62.3921C351.463 62.9894 350.908 63.5441 350.311 64.0561C349.799 64.5681 349.287 65.1228 348.775 65.7201C348.177 66.4028 347.964 67.2134 348.135 68.1521C348.305 69.4321 348.647 70.8401 349.159 72.3761C349.415 72.4614 349.628 72.5894 349.799 72.7601C350.055 72.8454 350.225 72.9308 350.311 73.0161C350.823 73.0161 351.164 72.9734 351.335 72.8881C353.212 72.5468 354.663 71.5228 355.687 69.8161C355.857 69.3894 356.071 68.9628 356.327 68.5361C356.583 68.0241 356.796 67.5974 356.967 67.2561C357.137 66.4028 357.265 65.6348 357.351 64.9521C357.436 64.1841 357.521 63.3734 357.607 62.5201Z" fill="#171717"/>
<path d="M272.615 48.6962C272.444 49.0375 272.188 49.4215 271.847 49.8482C271.591 50.1895 271.335 50.5308 271.079 50.8721C270.993 51.2988 271.079 51.7255 271.335 52.1522C271.591 52.5788 271.761 53.0055 271.847 53.4322C271.761 53.9442 271.591 54.4988 271.335 55.0962C271.164 55.6082 270.993 56.0775 270.823 56.5042C270.481 57.1015 270.055 57.6562 269.543 58.1682C269.116 58.6802 268.817 59.3201 268.647 60.0882C268.647 60.2588 268.732 60.6002 268.903 61.1122C268.988 61.2828 269.073 61.4535 269.159 61.6242C269.329 61.7948 269.457 61.9655 269.543 62.1362C269.628 62.7335 269.5 63.2882 269.159 63.8002C268.903 64.2268 268.817 64.6961 268.903 65.2081C268.391 65.3788 268.092 65.4642 268.007 65.4642C266.897 65.2082 265.788 65.1228 264.679 65.2081C263.569 65.2081 262.545 65.2081 261.607 65.2081C260.753 65.2935 260.156 65.5922 259.815 66.1042C259.559 66.6162 259.132 66.9148 258.535 67.0002C258.364 66.9148 258.151 66.7442 257.895 66.4882C257.041 65.4642 255.975 64.7388 254.695 64.3121C254.353 64.2268 254.012 64.1415 253.671 64.0562C253.415 63.9708 253.201 63.8855 253.031 63.8002C252.092 63.4588 251.623 62.9468 251.623 62.2642C251.367 61.1548 251.452 60.0028 251.879 58.8082C252.049 58.2108 252.263 57.6561 252.519 57.1441C252.86 56.6321 253.159 56.0775 253.415 55.4801C253.415 55.3948 253.415 55.2668 253.415 55.0962C253.5 54.8402 253.585 54.6268 253.671 54.4562C253.927 52.9202 253.927 51.3842 253.671 49.8482C253.415 48.3122 253.159 46.8188 252.903 45.3681C252.817 44.6855 252.604 44.0882 252.263 43.5761C252.007 42.9788 251.708 42.3815 251.367 41.7841C251.111 41.2722 250.855 40.7602 250.599 40.2482C250.428 39.7362 250.385 39.1815 250.471 38.5842C249.873 38.1575 249.148 37.8161 248.295 37.5602C248.209 37.1335 248.081 36.6641 247.911 36.1521C247.74 35.6401 247.527 35.1708 247.271 34.7442C246.417 34.1468 245.692 33.7628 245.095 33.5921C243.9 33.3361 243.047 33.5068 242.535 34.1041C242.449 34.4455 242.364 34.7442 242.279 35.0002C242.279 35.2562 242.279 35.5548 242.279 35.8961C242.279 36.2375 242.236 36.5788 242.151 36.9202C242.151 37.2615 242.065 37.6028 241.895 37.9442C241.468 38.7975 241.127 39.6935 240.871 40.6321C240.7 41.5708 240.572 42.5095 240.487 43.4482C240.487 43.9602 240.444 44.4721 240.359 44.9841C240.273 45.4961 240.145 45.9655 239.975 46.3922C240.145 46.6482 240.273 46.9042 240.359 47.1602C240.444 47.4162 240.529 47.6721 240.615 47.9281C240.785 48.3548 240.7 48.6961 240.359 48.9521C240.017 49.2081 239.761 49.4215 239.591 49.5921C239.249 50.1041 239.121 50.6161 239.207 51.1282C239.377 51.6402 239.377 52.1522 239.207 52.6642C238.951 53.0055 238.823 53.4322 238.823 53.9442C238.823 54.3708 238.78 54.7975 238.695 55.2242C238.695 56.0775 238.524 56.9308 238.183 57.7841C237.927 58.6375 237.585 59.4482 237.159 60.2162C237.159 61.4962 236.945 62.7762 236.519 64.0562C236.177 65.3362 235.751 66.6161 235.239 67.8961C234.812 68.4081 234.556 68.9628 234.471 69.5602C234.385 70.1575 234.172 70.7975 233.831 71.4801C233.575 71.8215 233.276 72.1202 232.935 72.3762C232.593 72.6322 232.295 72.9308 232.039 73.2722C231.697 73.6988 231.356 74.1681 231.015 74.6801C230.759 75.1921 230.631 75.7468 230.631 76.3441C230.716 77.1975 230.332 77.7521 229.479 78.0081C229.052 78.0935 228.583 78.1788 228.071 78.2642C227.644 78.3495 227.217 78.4348 226.791 78.5202C225.084 78.9468 223.761 79.7575 222.823 80.9521C222.225 81.7201 221.287 82.1895 220.007 82.3602C219.324 82.1895 218.556 82.0188 217.703 81.8482C216.935 81.5922 216.209 81.2082 215.527 80.6962C215.356 80.5255 215.185 80.4402 215.015 80.4402C214.929 80.3548 214.801 80.2695 214.631 80.1842C213.351 80.0135 212.113 79.6722 210.919 79.1602C209.724 78.6482 208.401 78.3495 206.951 78.2642C206.524 77.8375 206.055 77.4962 205.543 77.2402C205.116 76.8988 204.689 76.5575 204.263 76.2162C203.836 75.9602 203.409 75.7042 202.983 75.4482C202.556 75.1922 202.129 74.9788 201.703 74.8082C201.447 74.6375 201.191 74.5095 200.935 74.4241C200.764 74.2535 200.593 74.1255 200.423 74.0401C198.631 73.1868 197.308 71.9068 196.455 70.2001C195.943 69.1761 195.388 68.1522 194.791 67.1282C194.193 66.1042 193.553 65.1655 192.871 64.3121C192.529 63.8855 192.316 63.5015 192.231 63.1602C192.145 62.9042 192.103 62.6908 192.103 62.5201C192.103 62.2641 192.017 62.0935 191.847 62.0081C190.908 60.5575 190.225 59.0215 189.799 57.4002C189.372 55.6935 189.073 54.0295 188.903 52.4081C188.817 52.0668 188.775 51.7682 188.775 51.5122C188.86 51.2562 188.817 51.0002 188.647 50.7442C188.561 50.3175 188.476 49.8908 188.391 49.4641C188.305 48.9522 188.22 48.4401 188.135 47.9281C188.305 47.2455 188.433 46.5202 188.519 45.7522C188.689 44.9842 188.86 44.2162 189.031 43.4482C189.201 42.7655 189.287 42.0828 189.287 41.4001C189.372 40.6321 189.457 39.9068 189.543 39.2242C189.799 38.9681 190.012 38.7121 190.183 38.4561C190.353 38.2001 190.567 37.9442 190.823 37.6882C190.823 37.4322 190.823 37.1761 190.823 36.9202C190.908 36.6642 190.951 36.4081 190.951 36.1521C191.207 35.5548 191.505 35.0428 191.847 34.6161C192.188 34.1042 192.316 33.5495 192.231 32.9521C192.487 32.5255 192.7 32.0988 192.871 31.6721C193.127 31.2455 193.34 30.8188 193.511 30.3922C193.681 30.1361 193.767 29.8375 193.767 29.4962C193.767 29.0695 193.809 28.6855 193.895 28.3441C195.175 27.4055 196.199 26.2535 196.967 24.8882C197.137 24.4615 197.393 24.0348 197.735 23.6082C198.161 23.1815 198.545 22.7122 198.887 22.2001C199.143 22.0295 199.441 21.8161 199.783 21.5602C200.124 21.3042 200.465 21.0481 200.807 20.7921C201.575 20.1948 202.3 19.6828 202.983 19.2561C203.153 19.1708 203.324 19.0855 203.495 19.0002C203.665 18.8295 203.793 18.6588 203.879 18.4882C204.817 17.2081 205.927 16.1415 207.207 15.2881C208.487 14.4348 209.681 13.4535 210.791 12.3441C211.217 12.4295 211.644 12.5148 212.071 12.6002C212.583 12.6855 213.052 12.8135 213.479 12.9841C213.735 12.6428 214.033 12.3868 214.375 12.2161C214.801 11.9601 215.185 11.6615 215.527 11.3202C216.721 10.9788 217.447 10.7228 217.703 10.5521C218.044 10.3815 218.385 10.1255 218.727 9.78415C219.409 10.0402 220.092 10.2535 220.775 10.4241C221.457 10.5948 222.097 10.8082 222.695 11.0641C222.951 10.8935 223.164 10.8082 223.335 10.8082C223.505 10.7228 223.633 10.6375 223.719 10.5521C224.401 10.0401 225.127 9.69882 225.895 9.52815C226.663 9.35748 227.473 9.27215 228.327 9.27215C229.265 9.35748 230.247 9.10148 231.271 8.50415C231.783 8.58948 232.295 8.71748 232.807 8.88815C233.404 9.05882 234.001 9.01615 234.599 8.76015C235.281 8.58948 235.921 8.54682 236.519 8.63215C237.116 8.71748 237.713 8.84548 238.311 9.01615C238.823 9.10148 239.463 9.35748 240.231 9.78415C241.084 10.1255 241.852 10.4242 242.535 10.6802C242.876 10.5095 243.175 10.3388 243.431 10.1682C243.772 9.99748 244.113 9.82682 244.455 9.65615C244.967 9.74148 245.436 9.95482 245.863 10.2962C246.289 10.5522 246.716 10.8082 247.143 11.0641C247.569 11.3201 247.996 11.5761 248.423 11.8321C248.935 12.0881 249.404 12.3015 249.831 12.4722H251.623C252.561 12.8135 253.5 13.1121 254.439 13.3681C255.463 13.6242 256.316 14.1788 256.999 15.0322C257.511 14.9468 257.98 14.9042 258.407 14.9042C258.919 14.8188 259.345 14.7335 259.687 14.6481C260.369 14.9895 260.924 15.4161 261.351 15.9281C261.777 16.4401 262.204 16.9095 262.631 17.3362C263.057 17.7628 263.441 18.1895 263.783 18.6161C264.209 19.0428 264.636 19.4695 265.063 19.8961C265.063 20.1522 265.02 20.4508 264.935 20.7921C264.935 21.0481 264.935 21.3895 264.935 21.8161C265.276 22.1575 265.575 22.4988 265.831 22.8401C266.172 23.1815 266.513 23.5655 266.855 23.9921C267.025 24.3335 267.111 24.6322 267.111 24.8882C267.367 25.4855 267.58 26.1681 267.751 26.9361C268.007 27.6188 268.22 28.3015 268.391 28.9841C268.647 29.8375 268.86 30.7762 269.031 31.8002C269.287 32.7388 269.287 33.6775 269.031 34.6161C269.543 36.1522 269.671 37.6882 269.415 39.2242C269.927 39.9922 270.439 40.7602 270.951 41.5282C271.463 42.2108 271.804 43.0215 271.975 43.9602C272.145 44.7282 272.188 45.4962 272.103 46.2642C272.103 47.0322 272.273 47.8428 272.615 48.6962ZM222.567 45.7522C222.481 45.1548 222.311 44.6002 222.055 44.0882C221.884 43.4908 221.969 42.8081 222.311 42.0401C221.799 41.3575 221.415 40.6322 221.159 39.8642C220.988 39.0108 221.073 38.1575 221.415 37.3042C221.585 37.0482 221.713 36.7495 221.799 36.4081C221.969 35.9815 222.097 35.5975 222.183 35.2561C222.353 34.5735 222.268 34.0615 221.927 33.7202C221.329 33.2935 220.775 32.9095 220.263 32.5681C219.751 32.2268 219.196 31.9281 218.599 31.6721C218.428 31.4162 218.172 31.4588 217.831 31.8002C217.575 32.0562 217.319 32.3548 217.063 32.6962C216.807 33.0375 216.551 33.3788 216.295 33.7202C215.953 33.9762 215.569 34.2321 215.143 34.4882C214.801 34.7442 214.46 35.0002 214.119 35.2561C213.863 35.5975 213.607 35.9815 213.351 36.4081C213.18 36.7495 213.009 37.0055 212.839 37.1761C212.412 37.3468 212.071 37.5175 211.815 37.6882C211.559 37.7735 211.26 37.9015 210.919 38.0722C210.577 38.7548 210.279 39.4375 210.023 40.1201C209.767 40.7175 209.511 41.2722 209.255 41.7841C209.255 42.6375 209.169 43.4482 208.999 44.2162C208.913 44.9842 208.913 45.7095 208.999 46.3922V47.2881C208.401 48.1415 208.359 48.8668 208.871 49.4641C209.468 50.0615 209.553 50.8721 209.127 51.8961C208.7 53.0055 208.871 54.1575 209.639 55.3521C209.98 55.9495 210.321 56.5468 210.663 57.1441C211.004 57.7415 211.388 58.3815 211.815 59.0641C211.985 59.3201 212.199 59.5762 212.455 59.8322C212.711 60.0882 212.924 60.3015 213.095 60.4722C213.863 60.6428 214.545 60.8135 215.143 60.9842C215.825 61.1548 216.465 61.3255 217.063 61.4962C217.745 61.0695 218.257 60.6428 218.599 60.2162C218.94 59.7042 219.281 59.1922 219.623 58.6802C219.793 57.9975 220.007 57.3575 220.263 56.7601C220.519 56.1628 220.689 55.5228 220.775 54.8401C220.945 54.4135 221.073 54.0721 221.159 53.8161C221.329 53.4748 221.372 53.1335 221.287 52.7922C221.201 51.8535 221.244 50.9148 221.415 49.9762C221.585 49.0375 221.671 48.1415 221.671 47.2881C221.841 46.9468 222.012 46.6482 222.183 46.3922C222.353 46.1362 222.481 45.9228 222.567 45.7522Z" fill="#171717"/>
<path d="M176.998 20.152C176.998 20.664 176.955 21.176 176.87 21.688C176.87 22.1146 176.742 22.5413 176.486 22.968C176.486 23.0533 176.443 23.1813 176.358 23.352C176.358 23.5226 176.401 23.6933 176.486 23.864C176.913 24.632 176.955 25.4 176.614 26.168C176.358 26.936 176.187 27.7893 176.102 28.728C176.017 29.3253 176.145 29.9653 176.486 30.648C176.827 31.2453 176.87 31.9706 176.614 32.824C176.529 32.9946 176.358 33.2506 176.102 33.592C175.846 33.9333 175.633 34.2746 175.462 34.616V35.512C174.95 36.3653 174.395 37.2186 173.798 38.072C173.201 38.9253 172.347 39.5653 171.238 39.992C171.067 40.3333 170.939 40.632 170.854 40.888C170.769 41.144 170.641 41.4 170.47 41.656C170.47 41.7413 170.385 41.8693 170.214 42.04C169.787 42.3813 169.275 42.3813 168.678 42.04C167.995 41.6133 167.27 41.3573 166.502 41.272C165.734 41.1867 165.009 41.2293 164.326 41.4C163.899 41.4 163.473 41.4426 163.046 41.528C162.619 41.6133 162.193 41.656 161.766 41.656C161.254 41.5707 160.742 41.4853 160.23 41.4C159.803 41.2293 159.377 40.9306 158.95 40.504C158.609 39.8213 158.481 39.1813 158.566 38.584C158.737 37.9867 158.779 37.3893 158.694 36.792C158.353 36.1946 158.182 35.5973 158.182 35C158.182 34.4027 158.097 33.7627 157.926 33.08C157.841 32.824 157.926 32.3546 158.182 31.672C158.523 30.9893 158.609 30.4773 158.438 30.136C158.097 29.88 157.713 29.3253 157.286 28.472C156.859 27.6187 156.433 27.192 156.006 27.192C155.153 27.0213 154.214 27.192 153.19 27.704C152.251 28.216 151.697 28.0453 151.526 27.192L151.014 26.808C149.99 26.04 148.625 25.656 146.918 25.656H143.718C143.291 25.7413 142.822 25.912 142.31 26.168C141.883 26.3387 141.414 26.3813 140.902 26.296C140.561 26.2106 140.219 26.2106 139.878 26.296C139.537 26.3813 139.238 26.5093 138.982 26.68C138.385 26.7653 137.83 26.808 137.318 26.808C136.806 26.808 136.209 26.7653 135.526 26.68C135.355 26.7653 135.099 26.8506 134.758 26.936C134.502 27.0213 134.289 27.1067 134.118 27.192C133.094 27.448 132.113 27.7893 131.174 28.216C130.235 28.5573 129.297 28.9413 128.358 29.368C127.078 29.9653 125.755 30.4773 124.39 30.904C123.025 31.3307 121.617 31.6293 120.166 31.8C119.142 31.8 118.459 31.4587 118.118 30.776C117.777 30.4347 117.521 30.0933 117.35 29.752C117.179 29.3253 117.009 28.9413 116.838 28.6C116.582 26.9786 116.198 25.4426 115.686 23.992C115.174 22.456 114.79 20.92 114.534 19.384C114.449 18.872 114.321 18.4026 114.15 17.976C113.979 17.464 113.851 16.9946 113.766 16.568C113.51 16.1413 113.382 15.672 113.382 15.16C113.297 14.7333 113.254 14.3493 113.254 14.008C113.254 13.6666 113.254 13.3253 113.254 12.984C113.595 12.6426 113.937 12.3866 114.278 12.216C115.729 11.3626 117.222 10.6373 118.758 10.04C120.379 9.44265 122.001 8.84531 123.622 8.24798C124.134 8.07731 124.646 7.90665 125.158 7.73598C125.67 7.56531 126.182 7.39465 126.694 7.22398C127.718 7.39465 128.699 7.30931 129.638 6.96798C130.662 6.54131 131.686 6.45598 132.71 6.71198C133.051 6.79731 133.35 6.83998 133.606 6.83998C133.947 6.75465 134.203 6.66932 134.374 6.58398C135.398 6.49865 136.379 6.49865 137.318 6.58398C137.574 6.58398 137.83 6.62665 138.086 6.71198C138.342 6.71198 138.641 6.66932 138.982 6.58398C140.177 6.32798 141.414 6.19998 142.694 6.19998C144.059 6.11465 145.382 5.98665 146.662 5.81598C147.686 5.64531 148.71 5.51732 149.734 5.43198C150.758 5.26131 151.739 4.96265 152.678 4.53598C153.361 4.19465 154.043 4.15198 154.726 4.40798C155.665 4.23731 156.262 4.36531 156.518 4.79198L157.158 5.43198H157.798C158.139 5.26131 158.267 5.21865 158.182 5.30398C158.182 5.38931 158.353 5.38931 158.694 5.30398C160.401 5.64531 162.15 5.98665 163.942 6.32798C165.734 6.58398 167.569 6.88265 169.446 7.22398C169.531 7.30932 169.659 7.43731 169.83 7.60798C170.001 7.77865 170.214 7.99198 170.47 8.24798C170.641 8.33332 170.811 8.50398 170.982 8.75998C171.238 9.01598 171.451 9.22931 171.622 9.39998C172.049 9.48532 172.433 9.57065 172.774 9.65598C173.201 9.65598 173.627 9.65598 174.054 9.65598C174.566 9.99732 174.865 10.424 174.95 10.936C175.121 11.448 175.334 11.9173 175.59 12.344C175.675 12.5146 175.718 12.6853 175.718 12.856C175.718 13.0266 175.761 13.1546 175.846 13.24C176.017 13.8373 176.102 14.392 176.102 14.904C176.102 15.416 176.187 15.928 176.358 16.44C176.614 17.0373 176.742 17.6773 176.742 18.36C176.827 18.9573 176.913 19.5546 176.998 20.152ZM164.838 68.408C164.753 68.8347 164.625 69.304 164.454 69.816C164.369 70.2426 164.241 70.6693 164.07 71.096C163.985 71.5226 163.942 71.992 163.942 72.504C163.942 73.016 163.942 73.4853 163.942 73.912C163.857 74.68 163.771 75.4906 163.686 76.344C163.686 77.1973 163.601 78.0933 163.43 79.032C162.747 79.3733 162.107 79.6293 161.51 79.8C160.913 79.9707 160.315 80.184 159.718 80.44C158.95 80.7813 158.182 81.0373 157.414 81.208C156.646 81.3786 155.878 81.6773 155.11 82.104C155.025 82.1893 154.854 82.232 154.598 82.232C154.342 82.232 154.129 82.232 153.958 82.232C153.361 82.0613 152.806 82.0613 152.294 82.232C151.782 82.3173 151.27 82.4453 150.758 82.616C150.075 82.7013 149.393 82.8293 148.71 83C148.113 83.0853 147.473 83.2133 146.79 83.384C146.022 83.64 145.254 83.768 144.486 83.768C143.803 83.768 143.078 83.768 142.31 83.768C141.115 83.5973 139.878 83.4693 138.598 83.384C137.318 83.384 135.953 83.384 134.502 83.384C134.075 83.2133 133.563 83 132.966 82.744C132.369 82.488 131.729 82.3173 131.046 82.232C130.449 82.1466 129.851 82.104 129.254 82.104C128.657 82.0187 128.017 81.9333 127.334 81.848C126.907 81.5067 126.438 81.2507 125.926 81.08C125.499 80.824 125.073 80.5253 124.646 80.184C124.39 79.416 124.262 78.7333 124.262 78.136C123.921 77.7093 123.451 77.496 122.854 77.496C122.342 77.496 121.958 77.24 121.702 76.728C121.787 76.472 121.873 76.216 121.958 75.96C122.043 75.704 122.086 75.4053 122.086 75.064C121.745 74.8933 121.361 74.7227 120.934 74.552C120.593 74.3813 120.251 74.2533 119.91 74.168L119.142 70.584C119.313 70.2427 119.441 69.944 119.526 69.688C119.611 69.3467 119.697 69.0053 119.782 68.664C119.697 67.64 119.654 66.616 119.654 65.592C119.654 64.568 119.825 63.5866 120.166 62.648C120.337 62.2213 120.379 61.8373 120.294 61.496C120.209 61.1547 120.166 60.7707 120.166 60.344C120.337 60.088 120.507 59.832 120.678 59.576C120.934 59.2346 121.19 58.936 121.446 58.68C121.958 58.5093 122.385 58.552 122.726 58.808C123.153 58.9787 123.537 59.1493 123.878 59.32C125.073 59.832 126.097 59.6613 126.95 58.808C127.035 58.7226 127.249 58.5946 127.59 58.424C128.017 58.3386 128.358 58.424 128.614 58.68C128.87 58.936 129.211 59.1493 129.638 59.32C129.809 59.32 129.979 59.32 130.15 59.32C130.406 59.32 130.705 59.3627 131.046 59.448C134.033 59.448 136.678 60.3867 138.982 62.264C140.006 63.2027 141.329 63.672 142.95 63.672C143.803 63.416 144.742 63.2026 145.766 63.032C146.79 62.8613 147.729 62.52 148.582 62.008C148.923 61.6666 149.435 61.496 150.118 61.496C151.057 61.4107 152.038 61.2826 153.062 61.112C154.086 60.9413 155.11 60.9413 156.134 61.112C157.158 61.1973 158.139 61.1547 159.078 60.984C160.017 60.8133 160.913 60.5573 161.766 60.216C162.193 59.96 162.577 59.832 162.918 59.832C163.174 59.9173 163.387 60.0026 163.558 60.088C163.729 60.1733 163.857 60.2587 163.942 60.344C164.198 60.7707 164.198 61.1973 163.942 61.624C163.771 61.9653 163.729 62.3493 163.814 62.776C163.985 63.1173 163.985 63.4587 163.814 63.8C163.729 64.1413 163.686 64.5253 163.686 64.952C163.857 65.5493 164.07 66.104 164.326 66.616C164.667 67.128 164.838 67.7253 164.838 68.408Z" fill="#171717"/>
<path d="M101.752 63.8001C102.264 64.6534 102.221 65.5494 101.624 66.4881C101.282 67.0854 100.984 67.7254 100.728 68.4081C100.557 69.0908 100.258 69.7308 99.8318 70.3281C99.4051 70.8401 98.9784 71.3948 98.5518 71.9921C98.1251 72.5894 97.6558 73.2294 97.1438 73.9121C96.6318 74.3388 96.0771 74.7654 95.4798 75.1921C94.8824 75.6188 94.3278 76.0028 93.8158 76.3441C93.3891 76.4294 93.0051 76.4294 92.6638 76.3441C92.4078 76.1734 92.1944 76.0454 92.0238 75.9601C91.9384 75.7894 91.7678 75.6188 91.5118 75.4481C91.3411 75.2774 91.2131 75.1494 91.1278 75.0641C90.7864 74.6374 90.5731 74.5094 90.4878 74.6801C90.4878 74.8508 90.2744 74.8934 89.8478 74.8081C89.5064 74.5521 89.0371 74.1254 88.4398 73.5281C87.9278 73.5281 87.5438 73.4001 87.2878 73.1441C87.1171 72.8881 86.7758 72.7174 86.2638 72.6321C86.1784 72.6321 86.0504 72.5468 85.8798 72.3761C85.7944 72.1201 85.4958 72.3334 84.9838 73.0161C84.7278 73.4428 84.3864 74.0828 83.9598 74.9361C83.6184 75.7894 83.3198 76.5148 83.0638 77.1121C82.8931 77.4534 82.6798 77.7948 82.4238 78.1361C82.2531 78.4774 82.0824 78.8614 81.9118 79.2881C81.6558 79.8854 81.3571 80.1841 81.0158 80.1841C80.4184 80.2694 79.9918 80.5254 79.7358 80.9521C79.4798 81.3788 79.1384 81.8054 78.7118 82.2321C77.7731 82.4881 76.7918 82.7441 75.7678 83.0001C74.7438 83.1708 73.7624 83.4268 72.8238 83.7681C71.7998 84.1094 70.7331 84.1948 69.6238 84.0241C68.5998 83.9388 67.6184 84.0241 66.6798 84.2801C66.2531 84.1094 65.7838 83.9814 65.2718 83.8961C64.8451 83.8108 64.4184 83.7254 63.9918 83.6401C63.7358 83.4694 63.4371 83.3414 63.0958 83.2561C62.7544 83.2561 62.4984 83.2134 62.3278 83.1281C61.5598 82.7868 61.0478 82.1468 60.7918 81.2081C60.2798 80.7814 59.7678 80.3974 59.2558 80.0561C58.7438 79.6294 58.1891 79.2028 57.5918 78.7761C57.3358 78.2641 57.1224 77.8801 56.9518 77.6241C56.8664 77.3681 56.7384 76.9414 56.5678 76.3441C56.3971 75.7468 56.1411 74.7654 55.7998 73.4001C55.5438 71.9494 55.1171 69.8161 54.5198 67.0001C54.6051 66.6588 54.6478 66.3174 54.6478 65.9761C54.7331 65.6348 54.8184 65.2934 54.9038 64.9521C54.8184 64.6961 54.6904 64.4828 54.5198 64.3121C54.4344 64.0561 54.3064 63.8001 54.1358 63.5441C54.1358 63.2881 54.1358 63.0321 54.1358 62.7761C54.2211 62.4348 54.2211 62.0934 54.1358 61.7521C54.1358 61.5814 54.0931 61.4108 54.0078 61.2401C53.9224 61.0694 53.8371 60.8561 53.7518 60.6001C54.1784 59.4054 54.7331 58.2961 55.4158 57.2721C56.0984 56.2481 56.8664 55.2668 57.7198 54.3281C58.1464 54.1574 58.5304 53.9868 58.8718 53.8161C59.2984 53.6454 59.6398 53.5174 59.8958 53.4321C60.9198 52.6641 61.9011 51.9388 62.8398 51.2561C63.7784 50.5734 64.6744 49.9334 65.5278 49.3361C66.2104 49.0801 66.8931 48.9521 67.5758 48.9521C68.3438 48.9521 69.0264 48.9094 69.6238 48.8241C70.2211 48.8241 70.7758 48.5681 71.2878 48.0561C71.3731 47.7148 71.4584 47.3308 71.5438 46.9041C71.6291 46.4774 71.7144 46.0934 71.7998 45.7521C71.7998 44.8988 71.6291 44.1734 71.2878 43.5761C70.9464 42.8934 70.5624 42.2534 70.1358 41.6561C69.9651 41.4001 69.7091 41.2294 69.3678 41.1441C69.0264 40.9734 68.7704 40.8454 68.5998 40.7601C68.0878 41.1014 67.5758 41.4001 67.0638 41.6561C66.6371 41.9121 66.1251 41.9974 65.5278 41.9121C65.1864 41.8268 64.8878 41.8268 64.6318 41.9121C64.3758 41.9974 64.1198 42.0828 63.8638 42.1681C63.2664 42.3388 62.7118 42.5094 62.1998 42.6801C61.6878 42.8508 61.1758 43.0214 60.6638 43.1921C58.6158 44.0454 56.5678 44.3014 54.5198 43.9601C54.1784 44.3014 53.8371 44.6001 53.4958 44.8561C53.1544 45.0268 52.8558 45.2828 52.5998 45.6241C52.2584 45.6241 51.9171 45.6668 51.5758 45.7521C51.3198 45.7521 51.0638 45.7521 50.8078 45.7521C50.2958 46.1788 49.7838 46.6481 49.2718 47.1601C48.8451 47.5868 48.3758 48.0134 47.8638 48.4401C47.7784 49.0374 47.7784 49.6774 47.8638 50.3601C48.0344 50.8721 48.1198 51.3841 48.1198 51.8961C47.8638 53.6028 48.0771 55.2241 48.7598 56.7601C49.0158 57.6134 49.1438 58.4668 49.1438 59.3201V68.5361L47.8638 72.1201C48.1198 74.7654 48.2478 77.3254 48.2478 79.8001C48.2478 80.1414 48.2478 80.4828 48.2478 80.8241C48.2478 81.0801 48.2051 81.4214 48.1198 81.8481C48.0344 82.2748 47.9064 82.6588 47.7358 83.0001C47.5651 83.3414 47.3944 83.7254 47.2238 84.1521C47.0531 84.4934 46.7971 84.8348 46.4558 85.1761C46.1998 85.5174 45.9438 85.8161 45.6878 86.0721C44.2371 85.9868 42.7864 85.9868 41.3358 86.0721C39.8851 86.1574 38.4344 86.4988 36.9838 87.0961C36.4718 87.3521 36.0878 87.4801 35.8318 87.4801C35.0638 87.4801 34.3384 87.5228 33.6558 87.6081C32.9731 87.6934 32.2478 87.8214 31.4798 87.9921C31.3091 88.0774 31.0531 87.9921 30.7118 87.7361C30.4558 87.4801 30.3704 87.2241 30.4558 86.9681C30.5411 86.3708 30.5411 85.8161 30.4558 85.3041C30.4558 84.7921 30.4131 84.2801 30.3278 83.7681C29.9864 82.5734 29.8158 81.3788 29.8158 80.1841C29.8158 78.9041 29.6878 77.6668 29.4318 76.4721C29.3464 76.2161 29.3038 75.9174 29.3038 75.5761C29.3891 75.1494 29.4318 74.7654 29.4318 74.4241C29.5171 73.6561 29.6878 72.8028 29.9438 71.8641C29.6878 71.4374 29.4744 71.0108 29.3038 70.5841C29.2184 70.1574 29.0904 69.7308 28.9198 69.3041C29.0904 68.6214 29.3464 67.9814 29.6878 67.3841C30.0291 66.7868 30.1998 66.1041 30.1998 65.3361C30.1998 64.9948 30.1144 64.7388 29.9438 64.5681C29.6878 64.4828 29.4318 64.4401 29.1758 64.4401C29.0904 64.5254 28.9624 64.6108 28.7918 64.6961C28.6211 64.6961 28.4931 64.7814 28.4078 64.9521L26.4878 66.8721C26.1464 66.9574 25.7624 67.0428 25.3358 67.1281C24.9944 67.2134 24.5678 67.2988 24.0558 67.3841C23.7998 67.5548 23.4158 67.8961 22.9038 68.4081C22.1358 69.8588 20.9411 70.4988 19.3198 70.3281C17.2718 70.1574 15.3518 70.4561 13.5598 71.2241C13.1331 71.3948 12.6638 71.5654 12.1518 71.7361C11.6398 71.8214 11.1704 71.9494 10.7438 72.1201C9.89043 72.3761 9.1651 72.1201 8.56777 71.3521C8.22643 70.9254 7.92777 70.5841 7.67177 70.3281C7.5011 69.9868 7.2451 69.6454 6.90377 69.3041C6.7331 68.8774 6.4771 68.4508 6.13577 68.0241C5.87977 67.5974 5.66643 67.2134 5.49577 66.8721C4.47177 65.1654 4.25843 63.6721 4.85577 62.3921C5.4531 60.9414 5.9651 59.5334 6.39177 58.1681C6.90377 56.8028 7.58643 55.5228 8.43977 54.3281C8.86643 53.4748 9.20777 52.6641 9.46377 51.8961C9.89043 50.8721 10.2744 49.8908 10.6158 48.9521C10.9571 47.9281 11.4264 46.9894 12.0238 46.1361C12.1944 45.9654 12.3224 45.7521 12.4078 45.4961C12.4931 45.1548 12.5784 44.8561 12.6638 44.6001C12.6638 44.4294 12.6638 43.8748 12.6638 42.9361C12.7491 41.9974 12.7918 41.4854 12.7918 41.4001C12.1944 41.0588 11.6398 40.9734 11.1278 41.1441C10.7011 41.2294 10.1891 41.1441 9.59177 40.8881C9.50643 40.8028 9.20777 40.8028 8.69577 40.8881C8.2691 40.9734 7.97043 41.0588 7.79977 41.1441C7.3731 41.1441 6.9891 41.1868 6.64777 41.2721C6.30643 41.3574 5.92243 41.3148 5.49577 41.1441C5.0691 40.9734 4.64243 40.8881 4.21577 40.8881C3.87443 40.8028 3.49043 40.7174 3.06377 40.6321C2.3811 40.1201 1.91177 39.4801 1.65577 38.7121C1.4851 37.8588 1.18643 37.0481 0.759766 36.2801C0.930432 35.7681 1.05843 35.2561 1.14377 34.7441C1.2291 34.2321 1.3571 33.7201 1.52777 33.2081C1.18643 32.6961 0.930432 32.2268 0.759766 31.8001C0.759766 31.2028 0.759766 30.9041 0.759766 30.9041C0.930432 30.0508 1.1011 29.2828 1.27177 28.6001C1.44243 27.8321 1.44243 27.0641 1.27177 26.2961C1.27177 25.7841 1.6131 25.2721 2.29577 24.7601C2.6371 24.5894 3.0211 24.5041 3.44777 24.5041C3.87443 24.4188 4.25843 24.3334 4.59977 24.2481C4.85577 24.1628 5.11177 24.0774 5.36777 23.9921C5.7091 23.9068 5.9651 23.8214 6.13577 23.7361C7.41577 22.8828 8.61043 22.4561 9.71977 22.4561C10.9998 22.0294 12.2798 21.7734 13.5598 21.6881C14.9251 21.6028 16.2478 21.3894 17.5278 21.0481C17.8691 20.9628 18.1678 20.9201 18.4238 20.9201C18.6798 20.8348 18.9784 20.8348 19.3198 20.9201C20.0024 21.0054 20.5998 20.9628 21.1118 20.7921C21.7091 20.5361 22.3064 20.3654 22.9038 20.2801C23.0744 20.1948 23.2451 20.1948 23.4158 20.2801C23.6718 20.2801 23.8851 20.2801 24.0558 20.2801C24.3971 20.5361 24.5678 20.7921 24.5678 21.0481C24.6531 21.3041 24.7384 21.6028 24.8238 21.9441C24.9944 22.1148 25.1224 22.3708 25.2078 22.7121C25.3784 22.9681 25.5064 23.1814 25.5918 23.3521C25.6771 23.6934 25.8051 23.9921 25.9758 24.2481C26.1464 24.4188 26.2744 24.6321 26.3598 24.8881C25.7624 26.1681 25.5064 27.4054 25.5918 28.6001C25.7624 29.7948 26.0611 30.9894 26.4878 32.1841C26.3171 33.5494 26.1038 34.9148 25.8478 36.2801C25.6771 37.6454 25.4211 38.9681 25.0798 40.2481C25.0798 40.5041 25.2078 40.7174 25.4638 40.8881C25.7198 41.0588 25.9758 41.0161 26.2318 40.7601C26.9144 40.1628 27.5971 39.5228 28.2798 38.8401C28.9624 38.1574 29.6024 37.5174 30.1998 36.9201C30.2851 36.9201 30.3278 36.8348 30.3278 36.6641C30.4984 36.2374 30.4984 35.8534 30.3278 35.5121C30.2424 35.1708 30.1998 34.8294 30.1998 34.4881C30.1998 34.0614 30.2424 33.6774 30.3278 33.3361C30.4131 32.9094 30.4984 32.4828 30.5838 32.0561C29.9011 29.1548 29.8158 26.2534 30.3278 23.3521C30.3278 23.1814 30.3278 23.0534 30.3278 22.9681C30.4131 22.7974 30.4558 22.6268 30.4558 22.4561C30.3704 21.7734 30.3704 21.0908 30.4558 20.4081C30.6264 19.7254 30.7118 19.0428 30.7118 18.3601C30.7118 17.6774 30.6691 17.0374 30.5838 16.4401C30.5838 15.8428 30.4984 15.2028 30.3278 14.5201C29.9864 13.9228 29.8584 13.3254 29.9438 12.7281C30.0291 12.1308 30.1571 11.4908 30.3278 10.8081C30.7544 9.61343 31.1384 8.37609 31.4798 7.09609C31.8211 5.73076 32.0771 4.40809 32.2478 3.1281C32.3331 2.95743 32.3758 2.82943 32.3758 2.74409C32.4611 2.65876 32.5464 2.57343 32.6318 2.4881C33.4851 1.63476 34.4664 0.866759 35.5758 0.184096C36.0024 0.184096 36.3864 0.141429 36.7278 0.0560972C37.0691 -0.0292401 37.4104 0.013426 37.7518 0.184096C38.2638 0.269428 38.7331 0.35476 39.1598 0.440092C39.5864 0.525425 40.0984 0.610759 40.6958 0.696097C41.8051 1.03743 42.9144 1.37876 44.0238 1.72009C45.2184 1.97609 46.4131 2.31743 47.6078 2.74409C47.6931 2.91476 47.7784 3.08543 47.8638 3.25609C48.0344 3.42676 48.1198 3.59743 48.1198 3.7681C48.2904 4.19476 48.4611 4.66409 48.6318 5.17609C48.8878 5.60276 49.1438 6.02942 49.3998 6.45609C50.5091 8.07742 50.9358 9.78409 50.6798 11.5761C50.5944 12.1734 50.5091 12.7281 50.4238 13.2401C50.3384 13.7521 50.2531 14.3494 50.1678 15.0321C50.2531 15.2881 50.3384 15.6294 50.4238 16.0561C50.5944 16.3974 50.7224 16.7814 50.8078 17.2081C50.7224 17.3788 50.5944 17.6348 50.4238 17.9761C50.2531 18.2321 50.0824 18.5308 49.9118 18.8721C49.9971 19.1281 50.0824 19.3841 50.1678 19.6401C50.3384 19.8961 50.4664 20.1521 50.5518 20.4081C50.5518 20.6641 50.5091 20.9201 50.4238 21.1761C50.3384 21.4321 50.2958 21.6881 50.2958 21.9441C50.9784 22.4561 51.5331 22.6268 51.9598 22.4561C52.6424 22.2854 53.1971 22.1148 53.6238 21.9441C54.3064 21.4321 55.0318 21.0054 55.7998 20.6641C56.5678 20.2374 57.2931 19.8534 57.9758 19.5121C58.6584 19.2561 59.3411 19.0001 60.0238 18.7441C60.7918 18.4881 61.6024 18.5308 62.4558 18.8721C63.3944 18.6161 64.2904 18.5308 65.1438 18.6161C66.0824 18.7014 66.9784 18.5308 67.8318 18.1041C68.0878 17.9334 68.3864 17.8481 68.7278 17.8481C69.1544 17.7628 69.4958 17.6774 69.7518 17.5921C70.1784 17.5068 70.5624 17.4641 70.9038 17.4641C71.2451 17.3788 71.5864 17.2934 71.9278 17.2081C72.6958 17.2081 73.4211 17.2508 74.1038 17.3361C74.8718 17.3361 75.6824 17.3788 76.5358 17.4641C77.6451 17.6348 78.4984 18.1041 79.0958 18.8721C80.2051 20.3228 81.4851 21.6454 82.9358 22.8401C84.3864 23.9494 85.7518 25.2721 87.0318 26.8081C87.2878 27.5761 87.5438 28.4294 87.7998 29.3681C88.0558 30.2214 88.0558 31.1601 87.7998 32.1841C87.9704 32.5254 88.0984 32.9094 88.1838 33.3361C88.3544 33.7628 88.4824 34.1894 88.5678 34.6161C88.7384 35.1281 88.9091 35.6401 89.0798 36.1521C89.2504 36.6641 89.5491 37.1334 89.9758 37.5601C90.2318 37.9868 90.4451 38.4561 90.6158 38.9681C90.7864 39.3948 90.7864 39.8214 90.6158 40.2481C90.5304 41.3574 90.4878 42.4668 90.4878 43.5761C90.4878 44.6001 90.3171 45.6241 89.9758 46.6481C89.4638 47.5014 89.2931 48.4401 89.4638 49.4641C89.7198 50.0614 90.1038 50.4454 90.6158 50.6161C91.1278 50.7014 91.5544 50.8294 91.8958 51.0001C92.2371 51.2561 92.6211 51.5548 93.0478 51.8961C93.4744 52.1521 93.9438 52.4081 94.4558 52.6641C94.8824 53.2614 95.3091 53.9014 95.7358 54.5841C96.1624 55.1814 96.5464 55.7788 96.8878 56.3761C97.3144 56.6321 97.7411 56.8881 98.1678 57.1441C98.5944 57.4001 98.9784 57.6134 99.3198 57.7841C99.7464 58.2961 100.045 58.8081 100.216 59.3201C100.386 59.7468 100.557 60.1734 100.728 60.6001C100.813 61.4534 100.856 62.0508 100.856 62.3921C100.941 62.6481 101.24 63.1174 101.752 63.8001ZM74.2318 62.5201C74.2318 62.4348 74.1891 62.3921 74.1038 62.3921C74.1038 62.3068 74.1038 62.2641 74.1038 62.2641C73.7624 61.4961 73.1651 61.1974 72.3118 61.3681C71.6291 61.4534 70.9891 61.6241 70.3918 61.8801C69.7944 62.0508 69.1971 62.2214 68.5998 62.3921C68.0878 62.9894 67.5331 63.5441 66.9358 64.0561C66.4238 64.5681 65.9118 65.1228 65.3998 65.7201C64.8024 66.4028 64.5891 67.2134 64.7598 68.1521C64.9304 69.4321 65.2718 70.8401 65.7838 72.3761C66.0398 72.4614 66.2531 72.5894 66.4238 72.7601C66.6798 72.8454 66.8504 72.9308 66.9358 73.0161C67.4478 73.0161 67.7891 72.9734 67.9598 72.8881C69.8371 72.5468 71.2878 71.5228 72.3118 69.8161C72.4824 69.3894 72.6958 68.9628 72.9518 68.5361C73.2078 68.0241 73.4211 67.5974 73.5918 67.2561C73.7624 66.4028 73.8904 65.6348 73.9758 64.9521C74.0611 64.1841 74.1464 63.3734 74.2318 62.5201Z" fill="#171717"/>
</svg>
